<svg viewBox="0 0 380.24 302.71" xmlns="http://www.w3.org/2000/svg" xmlns:xlink="http://www.w3.org/1999/xlink" id="Camada_1" overflow="hidden"><defs></defs><g><path d="M220.52 16.02C210.93 1.15 193.03-2.12 180.03 8.38 179.78 8.58 179.53 8.78 179.29 9L169.97 22.35C165.59 33.49 166.46 47 173.21 57.49L196.51 93.64 320.61 286.18 367.92 244.71 220.52 16.02Z" fill="#1B3D81"/><path d="M41.66 238.31 344.96 238.31C361.66 238.31 375.21 251.87 375.21 268.56L375.21 268.56C375.21 285.26 361.65 298.81 344.96 298.81L41.66 298.81C39.34 298.81 37.46 296.93 37.46 294.61L37.46 242.49C37.46 240.17 39.34 238.29 41.66 238.29Z" fill="#3E6FB5"/><path d="M169.97 22.35 16.41 242.34C6.09 257.12 8 278.85 20.68 290.89L20.68 290.89C33.35 302.92 51.99 300.69 62.31 285.91L196.52 93.64 173.22 57.49C166.46 47.01 165.6 33.49 169.98 22.35Z" fill="#759DC9"/></g><circle cx="38.28" cy="264.43" r="37.78" stroke="#F4F8FE" stroke-miterlimit="10" fill="#759DC9"/><circle cx="196.52" cy="38.28" r="37.78" stroke="#F4F8FE" stroke-miterlimit="10" fill="#1B3D81"/><circle cx="341.96" cy="264.43" r="37.78" stroke="#F4F8FE" stroke-miterlimit="10" fill="#3E6FB5"/><path d="M36.29 291.5C34.25 291.5 32.52 290.79 31.09 289.36 29.66 287.93 28.95 286.2 28.95 284.16 28.95 283.53 29.02 282.93 29.16 282.37 29.3 281.81 29.52 281.26 29.8 280.73L20.56 271.49C20.03 271.78 19.49 271.99 18.93 272.13 18.37 272.27 17.8 272.34 17.2 272.34 15.14 272.34 13.41 271.63 11.99 270.2 10.57 268.77 9.86 267.04 9.86 265 9.86 262.96 10.57 261.24 11.99 259.83 13.41 258.42 15.15 257.72 17.2 257.72 18.87 257.72 20.34 258.2 21.6 259.16 22.86 260.12 23.71 261.35 24.15 262.86L29.31 262.86C29.68 261.72 30.28 260.73 31.11 259.89 31.94 259.05 32.93 258.45 34.08 258.09L34.08 252.93C32.57 252.5 31.34 251.65 30.38 250.38 29.42 249.11 28.94 247.65 28.94 245.98 28.94 243.94 29.65 242.21 31.08 240.78 32.51 239.35 34.24 238.64 36.28 238.64 38.32 238.64 40.04 239.35 41.45 240.78 42.86 242.21 43.56 243.94 43.56 245.98 43.56 246.58 43.5 247.16 43.38 247.71 43.26 248.27 43.05 248.81 42.77 249.34L51.95 258.58C52.48 258.29 53.03 258.08 53.6 257.94 54.17 257.8 54.76 257.73 55.38 257.73 57.42 257.73 59.15 258.44 60.58 259.87 62.01 261.3 62.72 263.03 62.72 265.07 62.72 267.11 62.01 268.84 60.58 270.27 59.15 271.7 57.42 272.41 55.38 272.41 53.71 272.41 52.24 271.93 50.98 270.97 49.72 270.01 48.87 268.78 48.43 267.27L43.27 267.27C42.9 268.41 42.3 269.4 41.47 270.24 40.64 271.08 39.65 271.68 38.5 272.04L38.5 277.14C40.01 277.57 41.24 278.43 42.2 279.72 43.16 281 43.64 282.48 43.64 284.15 43.64 286.19 42.93 287.92 41.5 289.35 40.07 290.78 38.34 291.49 36.3 291.49ZM32.86 277.62C32.94 277.58 33.03 277.54 33.14 277.5L33.45 277.38 33.76 277.26C33.86 277.22 33.97 277.18 34.1 277.14L34.1 272.06C33.53 271.86 33 271.6 32.51 271.3 32.02 271 31.57 270.64 31.16 270.23 30.75 269.82 30.4 269.37 30.09 268.88 29.78 268.39 29.53 267.86 29.33 267.29L24.19 267.29C24.15 267.41 24.11 267.52 24.07 267.63 24.03 267.74 23.99 267.82 23.95 267.91 23.91 268 23.87 268.08 23.83 268.19 23.79 268.3 23.75 268.38 23.71 268.47L25.58 270.34 28.3 273.06 31.02 275.78 32.89 277.65ZM48.34 262.88C48.38 262.76 48.42 262.65 48.46 262.54 48.5 262.43 48.54 262.35 48.58 262.26 48.62 262.17 48.66 262.09 48.7 261.98 48.74 261.87 48.78 261.79 48.82 261.7L46.95 259.83 44.2 257.08 41.45 254.33 39.58 252.46C39.5 252.5 39.41 252.54 39.3 252.58 39.19 252.62 39.11 252.66 39.02 252.7 38.93 252.74 38.85 252.77 38.74 252.79 38.63 252.81 38.55 252.84 38.46 252.88L38.46 258.08C39.03 258.24 39.57 258.49 40.08 258.81 40.59 259.13 41.05 259.5 41.46 259.91 41.87 260.32 42.23 260.77 42.56 261.26 42.89 261.75 43.13 262.28 43.29 262.85L48.31 262.85ZM55.37 268.01C56.2 268.01 56.9 267.73 57.46 267.17 58.02 266.61 58.3 265.91 58.3 265.08 58.3 264.25 58.02 263.55 57.46 262.99 56.9 262.43 56.2 262.15 55.37 262.15 54.54 262.15 53.84 262.43 53.28 262.99 52.72 263.55 52.44 264.25 52.44 265.08 52.44 265.91 52.72 266.61 53.28 267.17 53.84 267.73 54.54 268.01 55.37 268.01ZM36.29 268.01C37.12 268.01 37.82 267.73 38.38 267.17 38.94 266.61 39.22 265.91 39.22 265.08 39.22 264.25 38.94 263.55 38.38 262.99 37.82 262.43 37.12 262.15 36.29 262.15 35.46 262.15 34.76 262.43 34.2 262.99 33.64 263.55 33.36 264.25 33.36 265.08 33.36 265.91 33.64 266.61 34.2 267.17 34.76 267.73 35.46 268.01 36.29 268.01ZM36.29 287.1C37.12 287.1 37.82 286.82 38.38 286.26 38.94 285.7 39.22 285 39.22 284.17 39.22 283.34 38.94 282.64 38.38 282.08 37.82 281.52 37.12 281.24 36.29 281.24 35.46 281.24 34.76 281.52 34.2 282.08 33.64 282.64 33.36 283.34 33.36 284.17 33.36 285 33.64 285.7 34.2 286.26 34.76 286.82 35.46 287.1 36.29 287.1ZM17.2 268.01C18.03 268.01 18.73 267.73 19.29 267.17 19.85 266.61 20.13 265.91 20.13 265.08 20.13 264.25 19.85 263.55 19.29 262.99 18.73 262.43 18.03 262.15 17.2 262.15 16.37 262.15 15.67 262.43 15.11 262.99 14.55 263.55 14.27 264.25 14.27 265.08 14.27 265.91 14.55 266.61 15.11 267.17 15.67 267.73 16.37 268.01 17.2 268.01ZM36.29 248.93C37.12 248.93 37.82 248.65 38.38 248.09 38.94 247.53 39.22 246.83 39.22 246 39.22 245.17 38.94 244.47 38.38 243.91 37.82 243.35 37.12 243.07 36.29 243.07 35.46 243.07 34.76 243.35 34.2 243.91 33.64 244.47 33.36 245.17 33.36 246 33.36 246.83 33.64 247.53 34.2 248.09 34.76 248.65 35.46 248.93 36.29 248.93Z" fill="#F4F8FE"/><path d="M332.33 267.4 332.33 251.41 337.83 251.41 337.83 267.4 335.08 264.65 332.33 267.4ZM343.34 267.4 343.34 243.16 348.84 243.16 348.84 261.9 343.34 267.4ZM321.33 278.4 321.33 259.66 326.83 259.66 326.83 272.9 321.33 278.4ZM321.33 284.42 335.08 270.49 340.58 275.99 355.54 261.03 351.59 261.03 351.59 256.9 362.59 256.9 362.59 267.9 358.46 267.9 358.46 263.89 340.58 281.83 335.08 276.33 327 284.41 321.33 284.41Z" fill="#F4F8FE"/><path d="M187.1 55.2C186.58 55.2 186.1 55.08 185.65 54.83 185.2 54.58 184.86 54.24 184.63 53.79L180.69 46.74 183.79 46.74 185.93 50.97 190.63 50.97 190.63 49.56 186.81 49.56 184.69 45.33 179.93 45.33 176.7 39.69C176.58 39.49 176.49 39.27 176.44 39.02 176.38 38.77 176.35 38.52 176.35 38.28 176.35 38.16 176.47 37.69 176.7 36.87L179.93 31.23 184.81 31.23 186.93 27 190.75 27 190.75 25.59 186.11 25.59 183.99 29.82 180.7 29.82 184.64 22.77C184.88 22.32 185.22 21.98 185.66 21.73 186.11 21.48 186.59 21.36 187.11 21.36L191.28 21.36C192.08 21.36 192.75 21.63 193.29 22.17 193.83 22.71 194.1 23.38 194.1 24.18L194.1 32.64 191.46 32.64 189.34 34.05 194.1 34.05 194.1 41.1 189.05 41.1 186.93 36.87 182.29 36.87 180.76 38.28 186.11 38.28 188.21 42.51 194.1 42.51 194.1 52.38C194.1 53.18 193.83 53.85 193.29 54.39 192.75 54.93 192.08 55.2 191.28 55.2L187.11 55.2ZM201.84 55.2C200.67 55.2 199.68 54.79 198.86 53.96 198.04 53.13 197.63 52.14 197.63 50.97 197.63 50.19 197.82 49.47 198.19 48.82 198.56 48.17 199.08 47.67 199.75 47.32L199.75 29.22C199.08 28.87 198.56 28.37 198.19 27.72 197.82 27.07 197.63 26.36 197.63 25.57 197.63 24.41 198.05 23.41 198.88 22.58 199.71 21.75 200.71 21.34 201.88 21.34 203.05 21.34 204.04 21.75 204.87 22.58 205.69 23.41 206.1 24.4 206.1 25.57 206.1 26.35 205.91 27.07 205.54 27.72 205.17 28.37 204.65 28.87 203.98 29.22L203.98 34.51 208.21 31.96C208.21 30.76 208.63 29.75 209.46 28.92 210.29 28.09 211.29 27.69 212.46 27.69 213.63 27.69 214.62 28.11 215.45 28.94 216.28 29.77 216.68 30.77 216.68 31.94 216.68 33.11 216.27 34.1 215.44 34.93 214.61 35.75 213.61 36.16 212.45 36.16 212.06 36.16 211.7 36.12 211.37 36.04 211.04 35.96 210.71 35.82 210.39 35.63L205.58 38.51 210.93 42.8C211.17 42.72 211.41 42.65 211.66 42.59 211.91 42.53 212.18 42.5 212.46 42.5 213.64 42.5 214.63 42.92 215.46 43.75 216.28 44.58 216.69 45.58 216.69 46.75 216.69 47.92 216.28 48.91 215.45 49.74 214.62 50.56 213.63 50.97 212.47 50.97 211.17 50.97 210.1 50.48 209.25 49.49 208.41 48.5 208.08 47.37 208.28 46.1L203.99 42.69 203.99 47.33C204.62 47.68 205.12 48.18 205.49 48.82 205.86 49.46 206.05 50.18 206.05 50.98 206.05 52.14 205.64 53.14 204.83 53.97 204.02 54.8 203.03 55.21 201.86 55.21Z" fill="#F4F8FE"/></svg>